<?xml version="1.0" encoding="UTF-8" standalone="no"?>
<!DOCTYPE svg PUBLIC "-//W3C//DTD SVG 1.1//EN" "http://www.w3.org/Graphics/SVG/1.1/DTD/svg11.dtd">
<svg width="100%" height="100%" viewBox="0 0 1080 1080" version="1.1" xmlns="http://www.w3.org/2000/svg" xmlns:xlink="http://www.w3.org/1999/xlink" xml:space="preserve" xmlns:serif="http://www.serif.com/" style="fill-rule:evenodd;clip-rule:evenodd;stroke-linecap:round;stroke-linejoin:round;stroke-miterlimit:1.5;">
    <g id="logo" transform="matrix(1,0,0,1,-0.0855304,1.70195)">
        <path id="Stern" d="M568.42,92.523L577.455,34.539L617.57,78.328L675.544,68.843L648.658,120.061L674.364,171.908L617.907,163.112L575.367,203.512L567.832,145.846L515.112,119.071L568.42,92.523Z"/>
        <g id="rechts">
            <g id="Kopf" transform="matrix(1,0,0,1,-18.0283,-2.14984)">
                <ellipse cx="818.706" cy="187.823" rx="39.786" ry="40.468"/>
            </g>
            <path id="Arm.rechts" d="M684.04,277.994L724.587,255.796C724.587,255.796 690.591,233.418 679.925,230.34C654.182,222.911 645.388,245.892 657.969,260.193C663.206,266.146 684.04,277.994 684.04,277.994Z"/>
        </g>
        <path d="M617.909,325.311C617.909,325.311 606.995,325.043 606.166,308.69C605.334,292.267 623.071,292.219 623.071,292.219L696.142,298.156L749.673,259.052C749.673,259.052 753.521,228.452 794.18,238.127C821.914,244.727 818.389,276.305 818.389,276.305L783.476,435.954C783.476,435.954 782.215,445.343 769.88,449.877C757.464,454.441 744.152,452.197 744.152,452.197L702.655,481.73L691.69,532.862L753.3,561.994L746.152,478.917L788.036,446.214L802.823,597.046C802.823,597.046 913.438,673.671 916.744,697.08C918.694,710.888 845.961,841.074 814.134,885.849C783.741,928.607 739.524,974.646 708.023,1000.34C684.284,1019.71 653.918,1034.63 625.129,1040.03C595.417,1045.61 556.385,1050.45 529.749,1033.79C503.112,1017.14 478.171,976.942 465.31,940.092C452.183,902.478 447.158,852.195 450.985,808.108C453.419,780.07 467.371,696.431 490.771,623.758C513.314,553.748 536.676,496.388 551.707,490.797C560.126,487.665 651.081,517.796 651.081,517.796L662.015,452.37L716.122,409.895L736.063,316.389L705.893,336.849L617.909,325.311ZM680.724,756.863C673.755,764.402 706.664,807.06 723.188,815.746C742.35,825.819 786.695,827.222 793.84,819.63C800.876,812.154 769.738,776.235 762.859,769.119C757.661,763.743 748.099,757.555 736.458,754.615C714.402,749.042 686.797,750.294 680.724,756.863ZM527.855,672.595C520.886,680.133 554.122,724.218 570.646,732.905C589.808,742.977 633.826,742.954 640.97,735.362C648.006,727.886 615.343,693.555 608.464,686.439C603.122,680.914 593.653,674.619 581.866,671.417C560.449,665.601 533.839,666.122 527.855,672.595ZM511.051,792.258C511.424,798.154 507.974,908.194 559.164,938.895C626.961,979.557 708.505,894.001 706.586,893.049C701.08,890.314 653.474,916.847 587.662,885.375C540.527,862.835 510.274,779.99 511.051,792.258Z"/>
        <path d="M353.525,683.79C357.423,680.289 384.532,643.686 407.216,624.815C430.123,605.759 453.252,607.597 453.252,607.597C453.252,607.597 442.751,633.379 430.502,690.081C419.09,742.911 417.363,758.361 417.363,758.361C417.363,758.361 379.198,754.468 305.084,689.64C292.083,678.267 246.912,620.766 212.602,551.282C172.237,469.536 139.8,402.859 141.451,359.291C145.377,255.68 500.588,175.155 535.393,202.829C546.167,211.396 571.39,301.937 577.98,335.479C581.564,353.72 588.162,384.018 591.885,411.054C596.003,440.951 596.794,470.501 596.794,470.501C596.794,470.501 579.088,438.849 540.347,453.394C513.455,463.49 507.381,478.639 492.361,513.092C480.568,540.142 469.996,562.328 469.996,562.328C469.996,562.328 430.036,546.968 392.507,585.384C361.213,617.418 348.607,688.207 353.525,683.79ZM265.319,527.701C265.319,527.701 301.69,535.221 326.8,514.439C360.575,486.486 361.705,446.138 361.705,446.138C361.705,446.138 316.017,440.78 291.694,466.248C269.154,489.851 265.319,527.701 265.319,527.701ZM421.852,413.963C421.852,413.963 448.045,443.011 480.578,441.009C524.337,438.317 541.471,410.379 541.471,410.379C541.471,410.379 509.94,377.817 475.283,384.07C443.165,389.865 421.852,413.963 421.852,413.963Z" style="stroke:black;stroke-width:1px;"/>
    </g>
</svg>
