<?xml version="1.0" encoding="UTF-8" standalone="no"?><!DOCTYPE svg PUBLIC "-//W3C//DTD SVG 1.1//EN" "http://www.w3.org/Graphics/SVG/1.1/DTD/svg11.dtd"><svg width="100%" height="100%" viewBox="0 0 1080 1080" version="1.1" xmlns="http://www.w3.org/2000/svg" xmlns:xlink="http://www.w3.org/1999/xlink" xml:space="preserve" xmlns:serif="http://www.serif.com/" style="fill-rule:evenodd;clip-rule:evenodd;stroke-linecap:round;stroke-linejoin:round;stroke-miterlimit:1.5;"><g id="logo"><path id="Stern" d="M568.334,94.225l9.035,-57.984l40.115,43.789l57.974,-9.485l-26.886,51.218l25.706,51.847l-56.457,-8.796l-42.54,40.4l-7.535,-57.666l-52.72,-26.775l53.308,-26.548Z"/><g id="rechts"><g id="Kopf"><ellipse cx="800.592" cy="187.375" rx="39.786" ry="40.468"/></g><path id="Arm.rechts" d="M683.954,279.696l40.547,-22.198c0,-0 -33.996,-22.378 -44.662,-25.456c-25.743,-7.429 -34.537,15.552 -21.956,29.853c5.237,5.953 26.071,17.801 26.071,17.801Z"/></g><path d="M617.823,327.013c0,-0 -10.914,-0.268 -11.743,-16.621c-0.832,-16.423 16.905,-16.471 16.905,-16.471l73.071,5.937l53.531,-39.104c0,-0 3.848,-30.6 44.507,-20.925c27.734,6.6 24.209,38.178 24.209,38.178l-34.913,159.649c0,-0 -1.261,9.389 -13.596,13.923c-12.416,4.564 -25.728,2.32 -25.728,2.32l-41.497,29.533l-10.965,51.132l61.61,29.132l-7.148,-83.077l41.884,-32.703l14.787,150.832c0,-0 110.615,76.625 113.921,100.034c1.95,13.808 -70.783,143.994 -102.61,188.769c-30.393,42.758 -74.61,88.797 -106.111,114.491c-23.739,19.37 -54.105,34.29 -82.894,39.69c-29.712,5.58 -68.744,10.42 -95.38,-6.24c-26.637,-16.65 -51.578,-56.848 -64.439,-93.698c-13.127,-37.614 -18.152,-87.897 -14.325,-131.984c2.434,-28.038 16.386,-111.677 39.786,-184.35c22.543,-70.01 45.905,-127.37 60.936,-132.961c8.419,-3.132 99.374,26.999 99.374,26.999l10.934,-65.426l54.107,-42.475l19.941,-93.506l-30.17,20.46l-87.984,-11.538Zm62.815,431.552c-6.969,7.539 25.94,50.197 42.464,58.883c19.162,10.073 63.507,11.476 70.652,3.884c7.036,-7.476 -24.102,-43.395 -30.981,-50.511c-5.198,-5.376 -14.76,-11.564 -26.401,-14.504c-22.056,-5.573 -49.661,-4.321 -55.734,2.248Zm-152.869,-84.268c-6.969,7.538 26.267,51.623 42.791,60.31c19.162,10.072 63.18,10.049 70.324,2.457c7.036,-7.476 -25.627,-41.807 -32.506,-48.923c-5.342,-5.525 -14.811,-11.82 -26.598,-15.022c-21.417,-5.816 -48.027,-5.295 -54.011,1.178Zm-16.804,119.663c0.373,5.896 -3.077,115.936 48.113,146.637c67.797,40.662 149.341,-44.894 147.422,-45.846c-5.506,-2.735 -53.112,23.798 -118.924,-7.674c-47.135,-22.54 -77.388,-105.385 -76.611,-93.117Z"/><path d="M353.439,685.492c3.898,-3.501 31.007,-40.104 53.691,-58.975c22.907,-19.056 46.036,-17.218 46.036,-17.218c0,-0 -10.501,25.782 -22.75,82.484c-11.412,52.83 -13.139,68.28 -13.139,68.28c0,-0 -38.165,-3.893 -112.279,-68.721c-13.001,-11.373 -58.172,-68.874 -92.482,-138.358c-40.365,-81.746 -72.802,-148.423 -71.151,-191.991c3.926,-103.611 359.137,-184.136 393.942,-156.462c10.774,8.567 35.997,99.108 42.587,132.65c3.584,18.241 10.182,48.539 13.905,75.575c4.118,29.897 4.909,59.447 4.909,59.447c0,-0 -17.706,-31.652 -56.447,-17.107c-26.892,10.096 -32.966,25.245 -47.986,59.698c-11.793,27.05 -22.365,49.236 -22.365,49.236c0,-0 -39.96,-15.36 -77.489,23.056c-31.294,32.034 -43.9,102.823 -38.982,98.406Zm-88.206,-156.089c0,-0 36.371,7.52 61.481,-13.262c33.775,-27.953 34.905,-68.301 34.905,-68.301c0,-0 -45.688,-5.358 -70.011,20.11c-22.54,23.603 -26.375,61.453 -26.375,61.453Zm156.533,-113.738c0,-0 26.193,29.048 58.726,27.046c43.759,-2.692 60.893,-30.63 60.893,-30.63c0,-0 -31.531,-32.562 -66.188,-26.309c-32.118,5.795 -53.431,29.893 -53.431,29.893Z" style="stroke:#000;stroke-width:1px;"/></g></svg>